# File created by Blade
# Date/Time:  Tue Sep 30 19:06:28 2014
#---------------------------------------------------------
:version 1.10
:name HOM
:units
  mass 1.0
  length 1.000000
  angle deg
:documentation
     Acclaim Skeleton File
:root
   axis xyz
   order TX TY TZ RX RY RZ
   position 0.000000 0.000000 0.000000
   orientation 0 0 0
:bonedata
   begin
      id 1
      name Spine_dum
      direction 0.000000 1.000000 0.000000
      length 7.508948
      axis 0.0 0.0 0.0 xyz
   end
   begin
      id 2
      name LeftUpLeg_dum
      direction 1.000000 0.000000 0.000000
      length 3.000560
      axis 0.0 0.0 0.0 xyz
   end
   begin
      id 3
      name RightUpLeg_dum
      direction -1.000000 0.000000 0.000000
      length 3.000560
      axis 0.0 0.0 0.0 xyz
   end
   begin
      id 4
      name Spine
      direction 0.000000 1.000000 0.000000
      length 0.000000
      axis 0.0 0.0 0.0 xyz
      dof rx ry rz
   end
   begin
      id 5
      name Spine_dum1
      direction 0.000000 1.000000 0.000000
      length 13.861154
      axis 0.0 0.0 0.0 xyz
   end
   begin
      id 6
      name Spine_dum2
      direction 0.000000 1.000000 0.000000
      length 8.204781
      axis 0.0 0.0 0.0 xyz
   end
   begin
      id 7
      name Spine_dum3
      direction 0.000000 1.000000 0.000000
      length 8.204781
      axis 0.0 0.0 0.0 xyz
   end
   begin
      id 8
      name Head
      direction 0.000000 1.000000 0.000000
      length 4.527550
      axis 0.0 0.0 0.0 xyz
      dof rx ry rz
   end
   begin
      id 9
      name LeftShoulder
      direction 1.000000 0.000000 0.000000
      length 6.635956
      axis 0.0 0.0 -90.0 xyz
      dof rx ry rz
   end
   begin
      id 10
      name LeftArm
      direction 1.000000 0.000000 0.000000
      length 10.274218
      axis 0.0 0.0 -90.0 xyz
      dof rx ry rz
   end
   begin
      id 11
      name LeftForeArm
      direction 1.000000 0.000000 0.000000
      length 8.522147
      axis 0.0 0.0 -90.0 xyz
      dof ry rz rx
   end
   begin
      id 12
      name LeftHand
      direction 0.000000 0.000000 0.000000
      length 0.000000
      axis 0.0 0.0 -90.0 xyz
      dof rx ry rz
   end
   begin
      id 13
      name LeftHand_dum1
      direction 0.000000 0.000000 0.000000
      length 0.000000
      axis 0.0 0.0 -90.0 xyz
   end
   begin
      id 14
      name LeftHand_dum2
      direction 1.000000 0.000000 0.000000
      length 3.937000
      axis 0.0 0.0 -90.0 xyz
   end
   begin
      id 15
      name LeftHandThumb1
      direction 0.000000 0.000000 1.000000
      length 3.937000
      axis 0.0 0.0 -90.0 xyz
      dof rx rz ry
   end
   begin
      id 16
      name RightShoulder
      direction -1.000000 0.000000 0.000000
      length 6.635956
      axis 0.0 0.0 90.0 xyz
      dof rx ry rz
   end
   begin
      id 17
      name RightArm
      direction -1.000000 0.000000 0.000000
      length 10.274218
      axis 0.0 0.0 90.0 xyz
      dof rx ry rz
   end
   begin
      id 18
      name RightForeArm
      direction -1.000000 0.000000 0.000000
      length 8.522147
      axis 0.0 0.0 90.0 xyz
      dof ry rz rx
   end
   begin
      id 19
      name RightHand
      direction 0.000000 0.000000 0.000000
      length 0.000000
      axis 0.0 0.0 90.0 xyz
      dof rx ry rz
   end
   begin
      id 20
      name RightHand_dum1
      direction 0.000000 0.000000 0.000000
      length 0.000000
      axis 0.0 0.0 90.0 xyz
   end
   begin
      id 21
      name RightHand_dum2
      direction -1.000000 0.000000 0.000000
      length 3.937000
      axis 0.0 0.0 90.0 xyz
   end
   begin
      id 22
      name RightHandThumb1
      direction 0.000000 0.000000 1.000000
      length 3.937000
      axis 0.0 0.0 90.0 xyz
      dof rx rz ry
   end
   begin
      id 23
      name LeftUpLeg
      direction 0.000000 -1.000000 0.000000
      length 16.490845
      axis 0.0 0.0 0.0 xyz
      dof rx ry rz
   end
   begin
      id 24
      name LeftLeg
      direction 0.000000 -1.000000 0.000000
      length 14.556576
      axis 0.0 0.0 0.0 xyz
      dof rx ry rz
   end
   begin
      id 25
      name LeftFoot
      direction 0.000000 -0.258819 0.965926
      length 4.831116
      axis 15.0 0.0 0.0 xyz
      dof rx ry rz
   end
   begin
      id 26
      name LeftToeBase
      direction 0.000000 0.000000 1.000000
      length 2.952750
      axis 0.0 0.0 0.0 xyz
      dof rx ry rz
   end
   begin
      id 27
      name RightUpLeg
      direction 0.000000 -1.000000 0.000000
      length 16.490845
      axis 0.0 0.0 0.0 xyz
      dof rx ry rz
   end
   begin
      id 28
      name RightLeg
      direction 0.000000 -1.000000 0.000000
      length 14.556576
      axis 0.0 0.0 0.0 xyz
      dof rx ry rz
   end
   begin
      id 29
      name RightFoot
      direction 0.000000 -0.258819 0.965926
      length 4.831116
      axis 15.0 0.0 0.0 xyz
      dof rx ry rz
   end
   begin
      id 30
      name RightToeBase
      direction 0.000000 0.000000 1.000000
      length 2.952750
      axis 0.0 0.0 0.0 xyz
      dof rx ry rz
   end
:hierarchy
   begin
      root Spine_dum LeftUpLeg_dum RightUpLeg_dum
      Spine_dum Spine
      LeftUpLeg_dum LeftUpLeg
      RightUpLeg_dum RightUpLeg
      Spine Spine_dum1 Spine_dum2 Spine_dum3
      Spine_dum1 Head
      Spine_dum2 LeftShoulder
      Spine_dum3 RightShoulder
      LeftShoulder LeftArm
      LeftArm LeftForeArm
      LeftForeArm LeftHand
      LeftHand LeftHand_dum1 LeftHand_dum2
      LeftHand_dum1 LeftHandThumb1
      RightShoulder RightArm
      RightArm RightForeArm
      RightForeArm RightHand
      RightHand RightHand_dum1 RightHand_dum2
      RightHand_dum1 RightHandThumb1
      LeftUpLeg LeftLeg
      LeftLeg LeftFoot
      LeftFoot LeftToeBase
      RightUpLeg RightLeg
      RightLeg RightFoot
      RightFoot RightToeBase
   end

# File created by Blade
# Date/Time:  Thu Sep 25 18:48:06 2014
# Frame Rate: 120.000 fps
#------------------------------------------------------
:FULLY-SPECIFIED
:DEGREES
313
root 0.196522 32.907417 -0.537624 29.077147 5.345279 -1.196714
Spine 0.632299 5.582961 -0.701024
Head 7.609950 -12.866133 6.075501
LeftShoulder -14.114378 32.086516 7.605957
LeftArm -10.258066 58.538960 -101.664136
LeftForeArm -30.259098 -0.000000 25.569497
LeftHand -20.190717 -0.000000 -53.829907
LeftHandThumb1 -26.253704 0.000000 33.147579
RightShoulder -21.094751 -5.916418 -21.078938
RightArm -50.336646 -39.882869 130.887577
RightForeArm 23.381530 -0.000000 27.072981
RightHand -2.449658 -0.000000 50.089988
RightHandThumb1 -24.326973 -0.000000 -32.862282
LeftUpLeg -28.276918 6.764402 4.045492
LeftLeg -0.562820 -0.000000 0.000000
LeftFoot -5.784257 2.762041 -12.896466
LeftToeBase 10.982814 -0.000000 -0.000000
RightUpLeg -27.077751 -10.359650 1.949726
RightLeg 0.847661 -0.000000 -0.000000
RightFoot -4.683505 -8.011943 4.107529
RightToeBase 0.768919 -0.000000 -0.000000
314
root 0.176688 32.915463 -0.637556 29.795691 5.295044 -1.258309
Spine 0.859794 5.624695 -0.726868
Head 7.479307 -12.712197 6.310482
LeftShoulder -14.279164 32.143585 7.657225
LeftArm -10.821557 58.240839 -102.221313
LeftForeArm -29.531509 -0.000000 25.037327
LeftHand -20.057653 -0.000000 -54.161671
LeftHandThumb1 -26.253704 0.000000 33.147579
RightShoulder -21.180161 -6.036700 -21.071436
RightArm -50.226678 -39.382170 130.527900
RightForeArm 22.885044 -0.000000 26.498320
RightHand -2.661156 0.000000 50.501430
RightHandThumb1 -24.326973 -0.000000 -32.862282
LeftUpLeg -29.126039 6.972821 3.946029
LeftLeg -0.698015 -0.000000 0.000000
LeftFoot -5.473093 2.745631 -12.889244
LeftToeBase 11.008568 -0.000000 -0.000000
RightUpLeg -27.939053 -10.376283 2.223451
RightLeg 0.678044 -0.000000 -0.000000
RightFoot -4.358463 -7.866792 4.024433
RightToeBase 0.763233 -0.000000 -0.000000
315
root 0.166553 32.921000 -0.738664 30.540318 5.210952 -1.323487
Spine 1.056334 5.758196 -0.690055
Head 7.411934 -12.596825 6.324888
LeftShoulder -14.356043 32.189041 7.727677
LeftArm -11.390732 57.807250 -102.754022
LeftForeArm -29.119828 -0.000000 24.574655
LeftHand -20.022482 0.000000 -54.607511
LeftHandThumb1 -26.253704 0.000000 33.147579
RightShoulder -21.330259 -6.208525 -21.161479
RightArm -50.054603 -38.795523 130.095475
RightForeArm 22.386568 -0.000000 25.902983
RightHand -2.678428 0.000000 50.752128
RightHandThumb1 -24.326973 -0.000000 -32.862282
LeftUpLeg -29.946982 7.072502 3.890536
LeftLeg -0.904020 -0.000000 0.000000
LeftFoot -5.148045 2.828045 -12.821200
LeftToeBase 10.848469 -0.000000 -0.000000
RightUpLeg -28.873975 -10.402036 2.493025
RightLeg 0.598679 -0.000000 -0.000000
RightFoot -4.090233 -7.657377 4.009940
RightToeBase 0.767709 -0.000000 -0.000000
316
root 0.151123 32.927284 -0.841702 31.316943 5.186506 -1.383679
Spine 1.239940 5.843509 -0.649354
Head 7.312668 -12.499689 6.415523
LeftShoulder -14.437694 32.239521 7.804763
LeftArm -11.943014 57.435598 -103.241780
LeftForeArm -28.490734 -0.000000 24.183470
LeftHand -19.926743 0.000000 -54.914860
LeftHandThumb1 -26.253704 0.000000 33.147579
RightShoulder -21.482859 -6.412454 -21.186749
RightArm -49.811789 -38.152398 129.517619
RightForeArm 21.698586 -0.000000 25.393147
RightHand -2.575449 -0.000000 51.286818
RightHandThumb1 -24.326973 -0.000000 -32.862282
LeftUpLeg -30.842839 7.229771 3.804209
LeftLeg -1.081844 -0.000000 0.000000
LeftFoot -4.867170 2.839403 -12.939897
LeftToeBase 11.045353 -0.000000 -0.000000
RightUpLeg -29.797718 -10.366631 2.750893
RightLeg 0.448032 -0.000000 -0.000000
RightFoot -3.781071 -7.581180 3.970089
RightToeBase 0.743603 -0.000000 -0.000000
317
root 0.131048 32.929904 -0.944241 32.076045 5.192383 -1.393100
Spine 1.480449 5.815302 -0.685228
Head 7.130311 -12.329666 6.593645
LeftShoulder -14.585205 32.281112 7.939760
LeftArm -12.466939 56.985546 -103.699928
LeftForeArm -27.765418 -0.000000 23.814187
LeftHand -19.626506 -0.000000 -55.383489
LeftHandThumb1 -26.253704 0.000000 33.147579
RightShoulder -21.592220 -6.596805 -21.182156
RightArm -49.590326 -37.543266 128.976869
RightForeArm 20.990591 -0.000000 24.926700
RightHand -2.376836 -0.000000 51.541933
RightHandThumb1 -24.326973 -0.000000 -32.862282
LeftUpLeg -31.715565 7.314163 3.706517
LeftLeg -1.260672 -0.000000 0.000000
LeftFoot -4.559639 2.869142 -12.961882
LeftToeBase 11.059287 -0.000000 -0.000000
RightUpLeg -30.706879 -10.446018 3.027554
RightLeg 0.302559 -0.000000 -0.000000
RightFoot -3.549510 -7.417951 3.925391
RightToeBase 0.790078 -0.000000 -0.000000
318
root 0.112149 32.934076 -1.051631 32.907925 5.219202 -1.445216
Spine 1.645772 5.674817 -0.649063
Head 6.957657 -12.037875 6.722778
LeftShoulder -14.915149 32.395558 7.945123
LeftArm -12.894516 56.549547 -104.070726
LeftForeArm -27.157008 -0.000000 23.464013
LeftHand -19.742409 -0.000000 -55.544466
LeftHandThumb1 -26.253704 0.000000 33.147579
RightShoulder -21.586523 -6.692877 -21.276915
RightArm -49.360804 -36.847997 128.447059
RightForeArm 20.169093 -0.000000 24.352884
RightHand -2.257295 -0.000000 51.929372
RightHandThumb1 -24.326973 -0.000000 -32.862282
LeftUpLeg -32.668898 7.336386 3.692136
LeftLeg -1.435014 -0.000000 0.000000
LeftFoot -4.208778 2.916906 -12.919658
LeftToeBase 10.918908 -0.000000 -0.000000
RightUpLeg -31.687607 -10.468830 3.335132
RightLeg 0.139370 -0.000000 -0.000000
RightFoot -3.247480 -7.301709 3.881065
RightToeBase 0.777394 -0.000000 -0.000000
319
root 0.097384 32.937783 -1.159238 33.701389 5.196921 -1.502986
Spine 1.876224 5.705663 -0.575779
Head 6.790334 -11.863542 6.730588
LeftShoulder -15.067943 32.581730 7.979811
LeftArm -13.141482 56.193397 -104.296760
LeftForeArm -26.414649 -0.000000 23.155766
LeftHand -19.706516 -0.000000 -55.684232
LeftHandThumb1 -26.253704 0.000000 33.147579
RightShoulder -21.664563 -6.744443 -21.442625
RightArm -49.142620 -35.988729 127.897098
RightForeArm 19.256404 -0.000000 23.762723
RightHand -2.180119 -0.000000 52.574839
RightHandThumb1 -24.326973 -0.000000 -32.862282
LeftUpLeg -33.581547 7.428717 3.630029
LeftLeg -1.620006 -0.000000 0.000000
LeftFoot -3.944121 3.007970 -13.051355
LeftToeBase 11.123482 -0.000000 -0.000000
RightUpLeg -32.645956 -10.457291 3.618545
RightLeg 0.000583 -0.000000 -0.000000
RightFoot -2.944466 -7.167474 3.828073
RightToeBase 0.742701 -0.000000 -0.000000
320
root 0.081428 32.939397 -1.270988 34.509227 5.184543 -1.548202
Spine 2.115622 5.721361 -0.526852
Head 6.557385 -11.724276 6.759993
LeftShoulder -15.132792 32.644407 8.086793
LeftArm -13.594874 55.650844 -104.691628
LeftForeArm -25.633445 -0.000000 22.866043
LeftHand -19.683762 -0.000000 -55.914097
LeftHandThumb1 -26.253704 0.000000 33.147579
RightShoulder -21.788375 -6.872330 -21.597455
RightArm -48.909029 -35.218482 127.385323
RightForeArm 18.272493 -0.000000 23.150921
RightHand -1.918563 -0.000000 52.867294
RightHandThumb1 -24.326973 -0.000000 -32.862282
LeftUpLeg -34.529184 7.496783 3.568430
LeftLeg -1.769848 -0.000000 0.000000
LeftFoot -3.668860 3.089262 -13.111890
LeftToeBase 11.104996 -0.000000 -0.000000
RightUpLeg -33.597324 -10.364916 3.844452
RightLeg -0.169678 -0.000000 0.000000
RightFoot -2.662897 -7.125625 3.818971
RightToeBase 0.806536 -0.000000 -0.000000
321
root 0.063271 32.941511 -1.381612 35.317314 5.203782 -1.620118
Spine 2.376420 5.791134 -0.431104
Head 6.319412 -11.599364 6.778936
LeftShoulder -15.216052 32.749078 8.186386
LeftArm -13.898694 55.220261 -104.935635
LeftForeArm -24.950517 -0.000000 22.593114
LeftHand -19.623998 -0.000000 -56.238099
LeftHandThumb1 -26.253704 0.000000 33.147579
RightShoulder -21.940693 -6.977692 -21.753168
RightArm -48.528357 -34.229388 126.660915
RightForeArm 17.447308 0.000000 22.463146
RightHand -2.033752 0.000000 53.521151
RightHandThumb1 -24.326973 -0.000000 -32.862282
LeftUpLeg -35.463935 7.482138 3.609082
LeftLeg -1.940598 -0.000000 0.000000
LeftFoot -3.376070 3.224338 -13.183838
LeftToeBase 11.071997 -0.000000 -0.000000
RightUpLeg -34.567353 -10.341523 4.144721
RightLeg -0.299408 -0.000000 0.000000
RightFoot -2.390980 -7.004294 3.852707
RightToeBase 0.796480 -0.000000 -0.000000
322
root 0.044773 32.942700 -1.494267 36.145579 5.186763 -1.668052
Spine 2.618150 5.741919 -0.436249
Head 6.092673 -11.373402 6.949685
LeftShoulder -15.386853 32.866570 8.302928
LeftArm -14.214080 54.650269 -105.193000
LeftForeArm -24.339376 -0.000000 22.354490
LeftHand -19.712071 -0.000000 -56.469536
LeftHandThumb1 -26.253704 0.000000 33.147579
RightShoulder -21.901839 -7.022276 -21.867318
RightArm -48.187073 -33.241975 125.956894
RightForeArm 16.424334 -0.000000 21.842963
RightHand -2.091202 -0.000000 54.056296
RightHandThumb1 -24.326973 -0.000000 -32.862282
LeftUpLeg -36.429650 7.504484 3.592349
LeftLeg -2.087280 -0.000000 0.000000
LeftFoot -3.100812 3.349162 -13.271926
LeftToeBase 11.075011 -0.000000 -0.000000
RightUpLeg -35.536351 -10.223328 4.364273
RightLeg -0.473959 -0.000000 0.000000
RightFoot -2.092625 -6.936296 3.846506
RightToeBase 0.793390 -0.000000 -0.000000
